<svg xmlns="http://www.w3.org/2000/svg" width="127.095" height="29.357" viewBox="0 0 127.095 29.357"><defs><style>.a{fill:#fff;}.b{fill:#b73e02;}.c{fill:#ff6700;}</style></defs><g transform="translate(0)"><path class="a" d="M15.164,0,0,2.707,2.554,20.534,15.2,29.357h0l12.652-8.95,2.495-17.7Z"/><path class="b" d="M23.34,19.788l5.311,16.265L28.618,14.54Z" transform="translate(-13.454 -8.381)"/><path class="c" d="M40.862,19.788,35.834,36.053,35.8,14.54Z" transform="translate(-20.636 -8.381)"/><path class="c" d="M10.566,15.655l5.278-5.248L1.18,7.37Z" transform="translate(-0.68 -4.248)"/><path class="b" d="M40.862,15.655,35.8,10.407,50.468,7.37Z" transform="translate(-20.636 -4.248)"/><path class="a" d="M97.264,20.051a1.224,1.224,0,0,1-.877-.28,1.271,1.271,0,0,1-.292-.936V14.723h2.834V11.279H96.1V8.2H91.8v3.079H90.36v3.444H91.8V19.67a3.893,3.893,0,0,0,1.084,3.1,4.484,4.484,0,0,0,3.028.919,6.582,6.582,0,0,0,1.643-.191,6.074,6.074,0,0,0,1.33-.5V19.645a4.659,4.659,0,0,1-.788.292A3.075,3.075,0,0,1,97.264,20.051Z" transform="translate(-52.951 -4.926)"/><path class="a" d="M121.053,16.828a5.354,5.354,0,0,0-1.91-1.453,6.4,6.4,0,0,0-2.732-.538,6.125,6.125,0,0,0-2.474.491,5.93,5.93,0,0,0-1.944,1.364,5.993,5.993,0,0,0-1.271,2.025,6.777,6.777,0,0,0-.453,2.482v.059a6.7,6.7,0,0,0,.483,2.584,5.739,5.739,0,0,0,1.351,1.991,6.163,6.163,0,0,0,2.059,1.271,7.264,7.264,0,0,0,2.63.462,6.353,6.353,0,0,0,5.286-2.474l-2.363-1.957a4.452,4.452,0,0,1-1.271.945,3.359,3.359,0,0,1-1.406.292,2.829,2.829,0,0,1-1.694-.5,2.5,2.5,0,0,1-.932-1.508h8.141V21.5a8.653,8.653,0,0,0-.368-2.541A6.074,6.074,0,0,0,121.053,16.828Zm-6.735,3.359a3.147,3.147,0,0,1,.72-1.605,1.8,1.8,0,0,1,1.394-.6,1.893,1.893,0,0,1,1.44.6,2.719,2.719,0,0,1,.673,1.605Z" transform="translate(-64.427 -8.751)"/><path class="a" d="M147.7,23.656a2.355,2.355,0,0,1-1.292.335,2.262,2.262,0,0,1-.991-.212,2.308,2.308,0,0,1-.762-.585,2.774,2.774,0,0,1-.512-.877,3.286,3.286,0,0,1-.178-1.093v-.042a3,3,0,0,1,.178-1.046,2.762,2.762,0,0,1,.5-.847,2.317,2.317,0,0,1,.775-.593,2.118,2.118,0,0,1,.953-.216,2.342,2.342,0,0,1,1.3.339,3.842,3.842,0,0,1,.97.945l2.9-2.16a6.027,6.027,0,0,0-2.05-1.978,6.1,6.1,0,0,0-3.147-.741,6.8,6.8,0,0,0-2.626.5,6.353,6.353,0,0,0-2.059,1.372,6.464,6.464,0,0,0-1.338,2.025,6.269,6.269,0,0,0-.483,2.44v.059a6.353,6.353,0,0,0,1.813,4.452,6.205,6.205,0,0,0,2.012,1.36,7.04,7.04,0,0,0,5.824-.258,6.625,6.625,0,0,0,2.118-2.025l-2.855-2.067a5.024,5.024,0,0,1-1.05.911Z" transform="translate(-81.473 -8.777)"/><path class="a" d="M176.465,14.832a3.956,3.956,0,0,0-1.178.165,4.659,4.659,0,0,0-.978.424,4.015,4.015,0,0,0-.8.631,7.466,7.466,0,0,0-.644.741V15.1H168.57V27.268h4.295V20.677a2.118,2.118,0,0,1,.5-1.542,1.694,1.694,0,0,1,1.271-.517,1.58,1.58,0,0,1,1.228.517,2.232,2.232,0,0,1,.466,1.529v6.6h4.282V19.3a4.659,4.659,0,0,0-1.1-3.283,3.952,3.952,0,0,0-3.05-1.19Z" transform="translate(-98.034 -8.745)"/><path class="a" d="M210.036,16.7a6.9,6.9,0,0,0-4.812-1.864,7.019,7.019,0,0,0-2.707.491,6.777,6.777,0,0,0-2.118,1.385A6.247,6.247,0,0,0,199,18.74a6.053,6.053,0,0,0-.508,2.461v.059a6.133,6.133,0,0,0,1.889,4.464,6.625,6.625,0,0,0,2.118,1.36,7.1,7.1,0,0,0,2.685.5,7.018,7.018,0,0,0,2.7-.508A6.625,6.625,0,0,0,210,25.7a6.307,6.307,0,0,0,1.415-2.033,6.142,6.142,0,0,0,.5-2.465v-.042a6.1,6.1,0,0,0-.5-2.44,6.01,6.01,0,0,0-1.377-2.016Zm-2.27,4.558a2.889,2.889,0,0,1-.182,1.025,2.677,2.677,0,0,1-.5.847,2.321,2.321,0,0,1-.8.58,2.563,2.563,0,0,1-1.055.212,2.385,2.385,0,0,1-1.034-.224,2.686,2.686,0,0,1-.822-.593,2.541,2.541,0,0,1-.542-.847,2.872,2.872,0,0,1-.191-1.05v-.042a2.872,2.872,0,0,1,.182-1.025,2.635,2.635,0,0,1,.5-.847,2.308,2.308,0,0,1,.8-.58,2.5,2.5,0,0,1,1.055-.212,2.414,2.414,0,0,1,1.038.22,2.8,2.8,0,0,1,.817.593,2.626,2.626,0,0,1,.542.847,2.851,2.851,0,0,1,.191,1.046Z" transform="translate(-115.281 -8.752)"/><path class="a" d="M232.676,22.107,230.338,15h-4.5L230.7,27.258h3.888L239.445,15h-4.43Z" transform="translate(-130.182 -8.647)"/><rect class="a" width="4.295" height="12.165" transform="translate(109.622 6.353)"/><rect class="a" width="4.477" height="3.147" transform="translate(109.533 2.105)"/><path class="a" d="M278.433,21.006l4-6.006h-4.519l-1.8,2.995L274.316,15h-4.608l4.024,6.027-4.092,6.142h4.5l1.91-3.126,1.889,3.126h4.587Z" transform="translate(-155.43 -8.647)"/><path class="a" d="M109.411,59.1a1.893,1.893,0,0,1-.657-.114,1.838,1.838,0,0,1-.585-.36l.313-.377a1.783,1.783,0,0,0,.424.288,1.19,1.19,0,0,0,.5.1.631.631,0,0,0,.385-.106.318.318,0,0,0,.14-.271h0a.381.381,0,0,0-.025-.144.36.36,0,0,0-.1-.114.729.729,0,0,0-.208-.1,2.693,2.693,0,0,0-.339-.1,3.056,3.056,0,0,1-.424-.123,1.27,1.27,0,0,1-.309-.169.724.724,0,0,1-.195-.246.885.885,0,0,1-.064-.352h0a.8.8,0,0,1,.284-.623.945.945,0,0,1,.322-.178,1.241,1.241,0,0,1,.424-.064,1.644,1.644,0,0,1,.593.1,1.822,1.822,0,0,1,.491.275l-.284.4a2.058,2.058,0,0,0-.424-.229,1.135,1.135,0,0,0-.424-.076.555.555,0,0,0-.356.1.309.309,0,0,0-.127.25h0a.352.352,0,0,0,.03.152.275.275,0,0,0,.106.119,1.216,1.216,0,0,0,.22.1c.093.03.208.064.352.1a3.218,3.218,0,0,1,.424.131.9.9,0,0,1,.3.178.631.631,0,0,1,.182.241.767.767,0,0,1,.064.322h0a.817.817,0,0,1-.08.373.758.758,0,0,1-.216.284.932.932,0,0,1-.335.174A1.4,1.4,0,0,1,109.411,59.1Z" transform="translate(-63.217 -32.508)"/><path class="a" d="M118.3,59.078a1.61,1.61,0,0,1-.631-.119,1.465,1.465,0,0,1-.822-.822,1.542,1.542,0,0,1-.114-.593h0a1.537,1.537,0,0,1,.424-1.084,1.673,1.673,0,0,1,1.783-.339,1.521,1.521,0,0,1,.491.33,1.47,1.47,0,0,1,.318.487,1.542,1.542,0,0,1,.114.593h0a1.542,1.542,0,0,1-.114.593,1.478,1.478,0,0,1-.322.491,1.554,1.554,0,0,1-1.127.457Zm0-.479a.983.983,0,0,0,.424-.085.94.94,0,0,0,.313-.224,1.084,1.084,0,0,0,.208-.335,1.105,1.105,0,0,0,.072-.424h0a1.118,1.118,0,0,0-.072-.424,1.106,1.106,0,0,0-.208-.339.979.979,0,0,0-.322-.224.919.919,0,0,0-.424-.085.982.982,0,0,0-.424.08.94.94,0,0,0-.313.224,1.084,1.084,0,0,0-.208.335,1.118,1.118,0,0,0-.072.424h0a1.106,1.106,0,0,0,.072.424,1.059,1.059,0,0,0,.208.339.979.979,0,0,0,.322.224.923.923,0,0,0,.432.089Z" transform="translate(-68.151 -32.479)"/><path class="a" d="M127.62,56.11h.521V58.6h1.567v.474H127.62Z" transform="translate(-74.429 -32.543)"/><path class="a" d="M137.01,59.15a1.571,1.571,0,0,1-.525-.08,1.046,1.046,0,0,1-.4-.25,1.131,1.131,0,0,1-.258-.424,1.694,1.694,0,0,1-.089-.572V56.13h.534v1.694a.915.915,0,0,0,.2.635.733.733,0,0,0,.559.22.724.724,0,0,0,.551-.212.847.847,0,0,0,.2-.623V56.151h.521v1.694a1.626,1.626,0,0,1-.093.585,1.1,1.1,0,0,1-.258.424,1.021,1.021,0,0,1-.4.254A1.6,1.6,0,0,1,137.01,59.15Z" transform="translate(-79.109 -32.554)"/><path class="a" d="M146.062,59.545l.339-.5a1.428,1.428,0,0,1-.5-.186,1.521,1.521,0,0,1-.373-.322,1.44,1.44,0,0,1-.254-.453,1.6,1.6,0,0,1-.089-.534h0a1.563,1.563,0,0,1,.114-.6,1.533,1.533,0,0,1,.318-.491,1.5,1.5,0,0,1,.487-.33,1.487,1.487,0,0,1,.61-.136,2,2,0,0,1,.373.034,1.321,1.321,0,0,1,.309.1,1.27,1.27,0,0,1,.258.144,2.48,2.48,0,0,1,.229.191l-.339.385a1.7,1.7,0,0,0-.377-.267,1.008,1.008,0,0,0-.457-.1.923.923,0,0,0-.394.08.936.936,0,0,0-.313.229.962.962,0,0,0-.2.335,1.089,1.089,0,0,0-.072.424h0a1.118,1.118,0,0,0,.072.424,1.021,1.021,0,0,0,.2.339.936.936,0,0,0,.313.229.923.923,0,0,0,.394.085,1.012,1.012,0,0,0,.47-.106,1.761,1.761,0,0,0,.385-.284l.339.339a2.031,2.031,0,0,1-.229.208,1.342,1.342,0,0,1-.246.157,1.727,1.727,0,0,1-.292.11,1.766,1.766,0,0,1-.352.047l-.28.657Z" transform="translate(-84.557 -32.48)"/><path class="a" d="M156.138,57.967a1.6,1.6,0,0,1-.631-.119,1.479,1.479,0,0,1-.491-.33,1.619,1.619,0,0,1-.322-.491,1.542,1.542,0,0,1-.114-.593h0A1.521,1.521,0,0,1,155,55.349a1.622,1.622,0,0,1,.5-.335,1.6,1.6,0,0,1,.631-.123,1.521,1.521,0,0,1,.627.123,1.478,1.478,0,0,1,.491.33,1.521,1.521,0,0,1,.424,1.08h0a1.57,1.57,0,0,1-.906,1.427,1.521,1.521,0,0,1-.627.114Zm0-.479a.978.978,0,0,0,.4-.085,1,1,0,0,0,.318-.224,1.076,1.076,0,0,0,.2-.335,1.106,1.106,0,0,0,.076-.424h0a1.122,1.122,0,0,0-.076-.424,1.029,1.029,0,0,0-.208-.339,1,1,0,0,0-.318-.224.945.945,0,0,0-.424-.085.983.983,0,0,0-.424.08,1,1,0,0,0-.318.224,1.076,1.076,0,0,0-.2.335,1.123,1.123,0,0,0-.076.424h0a1.106,1.106,0,0,0,.076.424.987.987,0,0,0,.208.339,1,1,0,0,0,.318.224.953.953,0,0,0,.453.089Zm-.813-2.842a1.3,1.3,0,0,1,.178-.4.364.364,0,0,1,.3-.136.593.593,0,0,1,.174.025l.165.059a1.351,1.351,0,0,0,.148.059.356.356,0,0,0,.127.025.178.178,0,0,0,.14-.051.5.5,0,0,0,.093-.161l.288.089a1.245,1.245,0,0,1-.178.39.356.356,0,0,1-.3.14.593.593,0,0,1-.174-.025,1.5,1.5,0,0,1-.165-.059l-.148-.059a.39.39,0,0,0-.127-.03.165.165,0,0,0-.14.055.534.534,0,0,0-.093.161Z" transform="translate(-89.969 -31.367)"/><path class="a" d="M165.421,56.11h2.207v.474h-1.694v.75h1.5v.47h-1.5v.8h1.694v.474H165.4Z" transform="translate(-96.207 -32.543)"/><path class="a" d="M174.975,59.1a1.9,1.9,0,0,1-.661-.114,1.838,1.838,0,0,1-.585-.36l.313-.377a1.784,1.784,0,0,0,.424.288,1.19,1.19,0,0,0,.5.1.631.631,0,0,0,.385-.106.318.318,0,0,0,.14-.271h0a.381.381,0,0,0-.025-.144.36.36,0,0,0-.1-.114.728.728,0,0,0-.208-.1,2.694,2.694,0,0,0-.339-.1,2.838,2.838,0,0,1-.424-.123,1.212,1.212,0,0,1-.313-.169.665.665,0,0,1-.191-.246.813.813,0,0,1-.068-.352h0a.8.8,0,0,1,.284-.623.944.944,0,0,1,.322-.178,1.271,1.271,0,0,1,.424-.064,1.644,1.644,0,0,1,.593.1,1.822,1.822,0,0,1,.491.275l-.284.4a2.059,2.059,0,0,0-.4-.229,1.135,1.135,0,0,0-.424-.076.555.555,0,0,0-.356.1.309.309,0,0,0-.127.25h0a.351.351,0,0,0,.03.152.275.275,0,0,0,.106.119,1.216,1.216,0,0,0,.22.1c.093.03.212.064.352.1a3.219,3.219,0,0,1,.424.131.966.966,0,0,1,.3.178.665.665,0,0,1,.178.241.767.767,0,0,1,.064.322h0a.877.877,0,0,1-.064.36.813.813,0,0,1-.22.284.932.932,0,0,1-.335.174,1.393,1.393,0,0,1-.432.072Z" transform="translate(-101.008 -32.508)"/><path class="a" d="M187.72,56.11h.542v2.965h-.521Z" transform="translate(-109.073 -32.543)"/><path class="a" d="M192.84,56.11h.491l1.588,2.071V56.11h.529v2.965h-.424l-1.639-2.118v2.118h-.521Z" transform="translate(-112.024 -32.543)"/><path class="a" d="M203.235,56.6h-.945V56.11h2.419V56.6h-.945v2.495h-.529Z" transform="translate(-117.471 -32.543)"/><path class="a" d="M211.281,56.11h2.207v.474h-1.694v.75h1.5v.47h-1.5v.8h1.694v.474H211.26Z" transform="translate(-122.642 -32.543)"/><path class="a" d="M220.05,56.11h.521V58.6h1.576v.474h-2.088Z" transform="translate(-127.709 -32.543)"/><path class="a" d="M228.35,56.11h.521v2.965h-.521Z" transform="translate(-132.493 -32.543)"/><path class="a" d="M234.706,59.079a1.66,1.66,0,0,1-.631-.114,1.466,1.466,0,0,1-.491-.326,1.487,1.487,0,0,1-.313-.483,1.694,1.694,0,0,1-.11-.61h0a1.572,1.572,0,0,1,.114-.593,1.533,1.533,0,0,1,.318-.491,1.6,1.6,0,0,1,.491-.335A1.563,1.563,0,0,1,234.7,56a2.267,2.267,0,0,1,.356.025,1.768,1.768,0,0,1,.3.08,1.33,1.33,0,0,1,.258.127,2.215,2.215,0,0,1,.237.169l-.335.4a1.7,1.7,0,0,0-.174-.131,1.144,1.144,0,0,0-.186-.1,1.309,1.309,0,0,0-.216-.064,1.2,1.2,0,0,0-.258,0,.847.847,0,0,0-.381.085.949.949,0,0,0-.3.229.962.962,0,0,0-.2.335,1.084,1.084,0,0,0-.076.424h0a1.271,1.271,0,0,0,.072.424.949.949,0,0,0,.208.339.932.932,0,0,0,.318.22,1.008,1.008,0,0,0,.424.085,1.224,1.224,0,0,0,.4-.064,1.126,1.126,0,0,0,.318-.165v-.593h-.762v-.457h1.271v1.271c-.072.059-.157.119-.246.178a1.868,1.868,0,0,1-.623.25,2.151,2.151,0,0,1-.385.017Z" transform="translate(-135.266 -32.479)"/><path class="a" d="M243.331,56.11h2.207v.474h-1.694v.75h1.5v.47h-1.5v.8h1.694v.474H243.31Z" transform="translate(-141.117 -32.543)"/><path class="a" d="M252.11,56.11h.483l1.588,2.071V56.11h.521v2.965h-.424l-1.643-2.118v2.118h-.517Z" transform="translate(-146.19 -32.543)"/><path class="a" d="M262.495,56.6h-.945V56.11h2.423V56.6h-.961v2.495h-.529Z" transform="translate(-151.631 -32.543)"/><path class="a" d="M270.557,56.11h2.207v.474h-1.694v.75h1.5v.47h-1.491v.8h1.694v.474H270.54Z" transform="translate(-156.813 -32.543)"/><path class="a" d="M280.1,59.1a1.792,1.792,0,0,1-1.245-.474l.318-.377a1.783,1.783,0,0,0,.424.288,1.169,1.169,0,0,0,.5.1.622.622,0,0,0,.385-.106.309.309,0,0,0,.144-.271h0a.313.313,0,0,0-.03-.144.279.279,0,0,0-.1-.114.758.758,0,0,0-.2-.1,2.923,2.923,0,0,0-.339-.1,3.058,3.058,0,0,1-.424-.123,1.176,1.176,0,0,1-.309-.169.724.724,0,0,1-.195-.246.886.886,0,0,1-.064-.352h0a.8.8,0,0,1,.284-.623.944.944,0,0,1,.322-.178,1.241,1.241,0,0,1,.424-.064,1.6,1.6,0,0,1,.589.1,1.842,1.842,0,0,1,.5.275l-.284.4a2.057,2.057,0,0,0-.424-.229,1.152,1.152,0,0,0-.424-.076.576.576,0,0,0-.36.1.309.309,0,0,0-.127.25h0a.424.424,0,0,0,.03.152.322.322,0,0,0,.11.119,1.217,1.217,0,0,0,.22.1c.089.03.208.064.352.1a3.445,3.445,0,0,1,.424.131.944.944,0,0,1,.3.178.674.674,0,0,1,.182.241.767.767,0,0,1,.064.322h0a.818.818,0,0,1-.08.373.758.758,0,0,1-.216.284.966.966,0,0,1-.335.174A1.4,1.4,0,0,1,280.1,59.1Z" transform="translate(-161.603 -32.508)"/></g></svg>